<?xml version="1.0" encoding="UTF-8"?>
<!--
    Property Management System Buildings Icon
    Version: 2.1.0
    Created: 2025-01-08 18:47:05 UTC
    Author: hnejadi
-->
<svg xmlns="http://www.w3.org/2000/svg" width="24" height="24" viewBox="0 0 24 24">
    <!-- Definitions -->
    <defs>
        <!-- Building Gradients -->
        <linearGradient id="buildingGradient1" x1="0%" y1="0%" x2="100%" y2="100%">
            <stop offset="0%" style="stop-color:#3498DB"/>
            <stop offset="100%" style="stop-color:#2980B9"/>
        </linearGradient>
        <linearGradient id="buildingGradient2" x1="0%" y1="0%" x2="100%" y2="100%">
            <stop offset="0%" style="stop-color:#2C3E50"/>
            <stop offset="100%" style="stop-color:#34495E"/>
        </linearGradient>

        <!-- Shadow Effects -->
        <filter id="buildingShadow" x="-20%" y="-20%" width="140%" height="140%">
            <feGaussianBlur in="SourceAlpha" stdDeviation="0.5"/>
            <feOffset dx="0.5" dy="0.5" result="offsetblur"/>
            <feComponentTransfer>
                <feFuncA type="linear" slope="0.3"/>
            </feComponentTransfer>
            <feMerge>
                <feMergeNode/>
                <feMergeNode in="SourceGraphic"/>
            </feMerge>
        </filter>
    </defs>

    <!-- Background Building Group -->
    <g transform="translate(12, 4)" filter="url(#buildingShadow)">
        <!-- Tall Building -->
        <path d="M0,16 L6,16 L6,2 L3,0 L0,2 Z"
              fill="url(#buildingGradient2)"
              stroke="#2C3E50"
              stroke-width="0.5"/>

        <!-- Windows -->
        <rect x="1" y="4" width="1.5" height="1.5" fill="#ECF0F1" opacity="0.8"/>
        <rect x="3.5" y="4" width="1.5" height="1.5" fill="#ECF0F1" opacity="0.8"/>
        <rect x="1" y="7" width="1.5" height="1.5" fill="#ECF0F1" opacity="0.8"/>
        <rect x="3.5" y="7" width="1.5" height="1.5" fill="#ECF0F1" opacity="0.8"/>
        <rect x="1" y="10" width="1.5" height="1.5" fill="#ECF0F1" opacity="0.8"/>
        <rect x="3.5" y="10" width="1.5" height="1.5" fill="#ECF0F1" opacity="0.8"/>
        <rect x="1" y="13" width="1.5" height="1.5" fill="#ECF0F1" opacity="0.8"/>
        <rect x="3.5" y="13" width="1.5" height="1.5" fill="#ECF0F1" opacity="0.8"/>
    </g>

    <!-- Foreground Building Group -->
    <g transform="translate(6, 8)" filter="url(#buildingShadow)">
        <!-- Main Building -->
        <path d="M0,12 L8,12 L8,2 L4,0 L0,2 Z"
              fill="url(#buildingGradient1)"
              stroke="#2980B9"
              stroke-width="0.5"/>

        <!-- Windows -->
        <rect x="1.5" y="4" width="2" height="2" fill="#ECF0F1" opacity="0.9"/>
        <rect x="4.5" y="4" width="2" height="2" fill="#ECF0F1" opacity="0.9"/>
        <rect x="1.5" y="7" width="2" height="2" fill="#ECF0F1" opacity="0.9"/>
        <rect x="4.5" y="7" width="2" height="2" fill="#ECF0F1" opacity="0.9"/>

        <!-- Door -->
        <rect x="3.5" y="9" width="1" height="3" fill="#34495E"/>
    </g>

    <!-- Small Building -->
    <g transform="translate(2, 12)" filter="url(#buildingShadow)">
        <!-- Building Structure -->
        <path d="M0,8 L5,8 L5,2 L2.5,0 L0,2 Z"
              fill="url(#buildingGradient1)"
              stroke="#2980B9"
              stroke-width="0.5"/>

        <!-- Windows -->
        <rect x="1" y="3" width="1.2" height="1.2" fill="#ECF0F1" opacity="0.9"/>
        <rect x="2.8" y="3" width="1.2" height="1.2" fill="#ECF0F1" opacity="0.9"/>
        <rect x="1" y="5" width="1.2" height="1.2" fill="#ECF0F1" opacity="0.9"/>
        <rect x="2.8" y="5" width="1.2" height="1.2" fill="#ECF0F1" opacity="0.9"/>
    </g>

    <!-- Ground Line -->
    <line x1="2" y1="20" x2="22" y2="20"
          stroke="#95A5A6"
          stroke-width="0.5"
          stroke-dasharray="1,1"/>
</svg>