<?xml version="1.0" encoding="UTF-8"?>
<!--
    Property Management System Dashboard Icon
    Version: 2.1.0
    Last Updated: 2025-01-08 18:45:56 UTC
    Author: Design Team (hnejadi)
-->
<svg xmlns="http://www.w3.org/2000/svg" width="24" height="24" viewBox="0 0 24 24">
    <!-- Definitions for Reusable Elements -->
    <defs>
        <!-- Gradients -->
        <linearGradient id="primaryGradient" x1="0%" y1="0%" x2="100%" y2="100%">
            <stop offset="0%" style="stop-color:#3498DB"/>
            <stop offset="100%" style="stop-color:#2980B9"/>
        </linearGradient>

        <!-- Shadows -->
        <filter id="dropShadow" x="-20%" y="-20%" width="140%" height="140%">
            <feGaussianBlur in="SourceAlpha" stdDeviation="0.5"/>
            <feOffset dx="0.5" dy="0.5" result="offsetblur"/>
            <feComponentTransfer>
                <feFuncA type="linear" slope="0.2"/>
            </feComponentTransfer>
            <feMerge>
                <feMergeNode/>
                <feMergeNode in="SourceGraphic"/>
            </feMerge>
        </filter>
    </defs>

    <!-- Background Frame -->
    <rect x="2" y="2"
          width="20" height="20"
          rx="2"
          fill="#FFFFFF"
          stroke="#E0E0E0"
          stroke-width="1.5"/>

    <!-- Dashboard Grid Layout -->
    <g transform="translate(4, 4)" filter="url(#dropShadow)">
        <!-- Top Left Widget -->
        <rect x="0" y="0"
              width="7" height="7"
              rx="1"
              fill="url(#primaryGradient)"/>

        <!-- Top Right Widget -->
        <rect x="8" y="0"
              width="8" height="7"
              rx="1"
              fill="#ECF0F1"/>

        <!-- Bottom Left Widget -->
        <rect x="0" y="8"
              width="7" height="8"
              rx="1"
              fill="#ECF0F1"/>

        <!-- Bottom Right Widget -->
        <rect x="8" y="8"
              width="8" height="8"
              rx="1"
              fill="url(#primaryGradient)"/>
    </g>

    <!-- Widget Details -->
    <g transform="translate(4, 4)">
        <!-- Chart Lines in Top Left Widget -->
        <path d="M1.5,3 L3,4.5 L4.5,2.5 L6,3.5"
              stroke="#FFFFFF"
              stroke-width="0.75"
              fill="none"/>

        <!-- Data Points in Top Right Widget -->
        <circle cx="10" cy="3.5" r="0.5" fill="#34495E"/>
        <circle cx="12" cy="2.5" r="0.5" fill="#34495E"/>
        <circle cx="14" cy="4.5" r="0.5" fill="#34495E"/>

        <!-- List Lines in Bottom Left Widget -->
        <line x1="1.5" y1="10" x2="5.5" y2="10" stroke="#34495E" stroke-width="0.75"/>
        <line x1="1.5" y1="12" x2="5.5" y2="12" stroke="#34495E" stroke-width="0.75"/>
        <line x1="1.5" y1="14" x2="5.5" y2="14" stroke="#34495E" stroke-width="0.75"/>

        <!-- Progress Circle in Bottom Right Widget -->
        <circle cx="12" cy="12" r="2.5"
                stroke="#FFFFFF"
                stroke-width="0.75"
                fill="none"/>
        <path d="M12,9.5 A2.5,2.5 0 1,1 9.5,12"
              stroke="#FFFFFF"
              stroke-width="0.75"
              fill="none"/>
    </g>

    <!-- Active State Indicator -->
    <circle cx="20" cy="4" r="2"
            fill="#27AE60"
            filter="url(#dropShadow)"/>
</svg>