<?xml version="1.0" encoding="UTF-8"?>
<!--
    Property Management System Settings Icon
    Version: 2.1.0
    Created: 2025-01-08 18:51:42 UTC
    Author: hnejadi
-->
<svg xmlns="http://www.w3.org/2000/svg" width="24" height="24" viewBox="0 0 24 24">
    <!-- Definitions -->
    <defs>
        <!-- Gradients -->
        <linearGradient id="gearGradient" x1="0%" y1="0%" x2="100%" y2="100%">
            <stop offset="0%" style="stop-color:#3498DB"/>
            <stop offset="100%" style="stop-color:#2980B9"/>
        </linearGradient>

        <!-- Center Circle Gradient -->
        <linearGradient id="centerGradient" x1="0%" y1="0%" x2="100%" y2="100%">
            <stop offset="0%" style="stop-color:#ECF0F1"/>
            <stop offset="100%" style="stop-color:#BDC3C7"/>
        </linearGradient>

        <!-- Animation -->
        <animateTransform
            attributeName="transform"
            attributeType="XML"
            type="rotate"
            from="0 12 12"
            to="360 12 12"
            dur="10s"
            repeatCount="indefinite"/>

        <!-- Shadow -->
        <filter id="settingShadow" x="-20%" y="-20%" width="140%" height="140%">
            <feGaussianBlur in="SourceAlpha" stdDeviation="0.5"/>
            <feOffset dx="0.3" dy="0.3" result="offsetblur"/>
            <feComponentTransfer>
                <feFuncA type="linear" slope="0.3"/>
            </feComponentTransfer>
            <feMerge>
                <feMergeNode/>
                <feMergeNode in="SourceGraphic"/>
            </feMerge>
        </filter>
    </defs>

    <!-- Main Gear Group -->
    <g transform="translate(12, 12)" filter="url(#settingShadow)">
        <!-- Outer Gear -->
        <path d="
            M-2,-10 L2,-10 L3,-7 L6,-8 L8,-6 L7,-3 L10,-2 L10,2 L7,3 L8,6 L6,8 L3,7 L2,10 L-2,10 L-3,7
            L-6,8 L-8,6 L-7,3 L-10,2 L-10,-2 L-7,-3 L-8,-6 L-6,-8 L-3,-7 Z"
            fill="url(#gearGradient)"
            stroke="#2980B9"
            stroke-width="0.5"
            transform="rotate(0)">
            <animateTransform
                attributeName="transform"
                attributeType="XML"
                type="rotate"
                from="0"
                to="360"
                dur="10s"
                repeatCount="indefinite"/>
        </path>

        <!-- Inner Circle -->
        <circle cx="0" cy="0" r="4"
                fill="url(#centerGradient)"
                stroke="#BDC3C7"
                stroke-width="0.5"/>

        <!-- Decorative Lines -->
        <g stroke="#2980B9" stroke-width="0.5">
            <line x1="-2" y1="-2" x2="2" y2="2"/>
            <line x1="-2" y1="2" x2="2" y2="-2"/>
        </g>
    </g>

    <!-- Setting Dots -->
    <g transform="translate(12, 12)">
        <circle cx="6" cy="6" r="1" fill="#ECF0F1"/>
        <circle cx="-6" cy="-6" r="1" fill="#ECF0F1"/>
        <circle cx="6" cy="-6" r="1" fill="#ECF0F1"/>
        <circle cx="-6" cy="6" r="1" fill="#ECF0F1"/>
    </g>

    <!-- Active Status Indicator -->
    <circle cx="20" cy="4" r="2"
            fill="#27AE60"
            filter="url(#settingShadow)"/>
</svg>