<?xml version="1.0" encoding="UTF-8"?>
<!--
    Property Management System Tenants Icon
    Version: 2.1.0
    Created: 2025-01-08 18:50:04 UTC
    Author: hnejadi
-->
<svg xmlns="http://www.w3.org/2000/svg" width="24" height="24" viewBox="0 0 24 24">
    <!-- Definitions -->
    <defs>
        <!-- Gradients -->
        <linearGradient id="personGradient1" x1="0%" y1="0%" x2="100%" y2="100%">
            <stop offset="0%" style="stop-color:#3498DB"/>
            <stop offset="100%" style="stop-color:#2980B9"/>
        </linearGradient>
        <linearGradient id="personGradient2" x1="0%" y1="0%" x2="100%" y2="100%">
            <stop offset="0%" style="stop-color:#1ABC9C"/>
            <stop offset="100%" style="stop-color:#16A085"/>
        </linearGradient>
        <linearGradient id="personGradient3" x1="0%" y1="0%" x2="100%" y2="100%">
            <stop offset="0%" style="stop-color:#9B59B6"/>
            <stop offset="100%" style="stop-color:#8E44AD"/>
        </linearGradient>

        <!-- Shadows -->
        <filter id="tenantShadow" x="-20%" y="-20%" width="140%" height="140%">
            <feGaussianBlur in="SourceAlpha" stdDeviation="0.5"/>
            <feOffset dx="0.3" dy="0.3" result="offsetblur"/>
            <feComponentTransfer>
                <feFuncA type="linear" slope="0.2"/>
            </feComponentTransfer>
            <feMerge>
                <feMergeNode/>
                <feMergeNode in="SourceGraphic"/>
            </feMerge>
        </filter>
    </defs>

    <!-- Main Tenant Group -->
    <g transform="translate(2, 2)" filter="url(#tenantShadow)">
        <!-- Central Tenant -->
        <g transform="translate(6, 4)">
            <!-- Head -->
            <circle cx="4" cy="3" r="3"
                    fill="url(#personGradient1)"/>
            <!-- Body -->
            <path d="M1,7 C1,7 0,8 0,9 C0,10 1,14 4,14 C7,14 8,10 8,9 C8,8 7,7 7,7"
                  fill="url(#personGradient1)"/>
            <!-- Key -->
            <path d="M3,11 L5,11 M4,11 L4,13"
                  stroke="#ECF0F1"
                  stroke-width="0.75"
                  stroke-linecap="round"/>
        </g>

        <!-- Left Tenant -->
        <g transform="translate(0, 6)">
            <!-- Head -->
            <circle cx="3" cy="2" r="2"
                    fill="url(#personGradient2)"/>
            <!-- Body -->
            <path d="M0.5,5 C0.5,5 0,6 0,6.5 C0,7 0.5,10 3,10 C5.5,10 6,7 6,6.5 C6,6 5.5,5 5.5,5"
                  fill="url(#personGradient2)"/>
        </g>

        <!-- Right Tenant -->
        <g transform="translate(14, 6)">
            <!-- Head -->
            <circle cx="3" cy="2" r="2"
                    fill="url(#personGradient3)"/>
            <!-- Body -->
            <path d="M0.5,5 C0.5,5 0,6 0,6.5 C0,7 0.5,10 3,10 C5.5,10 6,7 6,6.5 C6,6 5.5,5 5.5,5"
                  fill="url(#personGradient3)"/>
        </g>

        <!-- Connection Lines -->
        <path d="M6,10 C6,10 8,8 10,8 C12,8 14,10 14,10"
              stroke="#95A5A6"
              stroke-width="0.5"
              stroke-dasharray="1,1"
              fill="none"/>
    </g>

    <!-- Status Badge -->
    <circle cx="20" cy="4" r="2"
            fill="#27AE60"
            filter="url(#tenantShadow)"/>
</svg>